<?xml version="1.0" encoding="utf-8"?>
<!-- Generator: Adobe Illustrator 16.0.0, SVG Export Plug-In . SVG Version: 6.00 Build 0)  -->
<!DOCTYPE svg PUBLIC "-//W3C//DTD SVG 1.1//EN" "http://www.w3.org/Graphics/SVG/1.1/DTD/svg11.dtd">
<svg version="1.1" xmlns="http://www.w3.org/2000/svg" xmlns:xlink="http://www.w3.org/1999/xlink" x="0px" y="0px"
	 width="337.379px" height="360px" viewBox="0 0 337.379 360" enable-background="new 0 0 337.379 360" xml:space="preserve">
<g id="bubble">
	<g>
		
			<path opacity="0.7" fill-rule="evenodd" clip-rule="evenodd" fill="none" stroke="#FCFFFF" stroke-width="7" stroke-linecap="round" stroke-linejoin="round" stroke-miterlimit="10" d="
			M105.062,244.831c-2.422-1.068-4.9-2.02-7.351-3.028c-0.2-0.08-0.369-0.231-0.555-0.335c-1.992-1.04-3.956-2.147-5.982-3.115
			c-2.085-0.989-4.235-1.851-6.348-2.768c-0.152-0.072-0.258-0.206-0.407-0.286c-1.918-1.047-3.828-2.119-5.78-3.129
			c-1.675-0.865-3.401-1.627-5.079-2.478c-1.086-0.559-2.155-1.169-3.189-1.824c-1.44-0.902-2.801-1.923-4.249-2.802
			c-2.227-1.341-4.512-2.588-6.74-3.914c-0.855-0.511-1.658-1.113-2.454-1.721c-1.723-1.316-3.41-2.674-5.136-3.974
			c-1.599-1.199-3.367-2.202-4.838-3.539c-2.723-2.484-5.242-5.201-7.934-7.727c-3.719-3.481-6.745-7.534-9.581-11.711
			c-1.971-2.892-3.715-5.966-5.266-9.105c-1.837-3.736-3.44-7.589-4.97-11.456c-0.982-2.463-1.792-5.017-2.419-7.588
			c-0.645-2.629-0.961-5.338-1.437-8.006c-0.39-2.174-0.931-4.332-1.165-6.513c-0.345-3.167-0.562-6.338-0.666-9.519
			c-0.089-2.902-0.069-5.817,0.114-8.708c0.183-2.975,0.624-5.925,0.961-8.888c0.017-0.162,0.069-0.324,0.086-0.486
			c0.52-4.635,0.755-9.326,1.63-13.896c1.103-5.748,2.726-11.404,4.128-17.104c0.107-0.42,0.242-0.844,0.42-1.237
			c1.379-3.122,2.747-6.237,4.157-9.346c0.779-1.72,1.582-3.43,2.437-5.118c0.63-1.237,1.324-2.447,2.058-3.628
			c0.858-1.388,1.82-2.716,2.681-4.095c0.769-1.223,1.396-2.541,2.219-3.723c1.29-1.844,2.74-3.586,4.036-5.442
			c1.286-1.845,2.413-3.814,3.708-5.658c1.41-2.013,2.939-3.941,4.39-5.926c0.68-0.938,1.255-1.947,1.934-2.886
			c0.796-1.096,1.672-2.144,2.492-3.226c1.169-1.547,2.069-3.401,3.512-4.604c3.281-2.734,6.748-5.274,10.29-7.676
			c4.505-3.052,9.097-5.978,13.77-8.771c3.177-1.906,6.541-3.514,9.86-5.19c2.164-1.086,4.366-2.12,6.599-3.07
			c1.651-0.699,3.36-1.293,5.086-1.802c2.248-0.67,4.536-1.203,6.806-1.792c1.762-0.462,3.499-1.093,5.291-1.35
			c3.156-0.453,6.34-0.727,9.519-0.996c2.971-0.253,5.956-0.643,8.916-0.524c3.356,0.134,6.692,0.772,10.035,1.201
			c0.379,0.055,0.755,0.213,1.13,0.212c5.06-0.012,9.839,1.546,14.637,2.818c5.786,1.524,11.49,3.386,17.235,5.067
			c2.134,0.627,4.312,1.077,6.431,1.72c4.171,1.272,8.295,2.702,12.469,3.932c8.609,2.534,17.467,3.927,26.29,5.449
			c0.645,0.11,1.31,0.088,1.963,0.125c2.852,0.165,5.791-0.047,8.527,0.591c4.693,1.093,9.497,1.827,13.909,4.166
			c3.133,1.665,6.696,2.518,10.06,3.741c0.518,0.188,1.011,0.435,1.515,0.653c2.767,1.223,5.489,2.566,8.318,3.634
			c3.975,1.5,8.026,2.791,12.035,4.184c0.31,0.105,0.589,0.293,0.889,0.428c2.775,1.239,5.552,2.469,8.32,3.706
			c1.957,0.874,4.032,1.562,5.841,2.679c2.916,1.812,5.78,3.75,8.444,5.913c2.819,2.276,5.609,4.665,7.991,7.375
			c2.399,2.725,4.397,5.826,6.366,8.894c2.433,3.81,4.849,7.633,6.365,11.959c1.468,4.197,3.281,8.268,4.78,12.458
			c0.758,2.112,1.171,4.356,1.716,6.538c0.482,1.943,1.023,3.873,1.371,5.841c0.356,1.971,0.58,3.974,0.722,5.969
			c0.157,2.219,0.182,4.449,0.213,6.676c0.027,1.713-0.413,3.533,0.049,5.097c1.057,3.587,0.712,7.244,0.954,10.859
			c0.161,2.502-0.375,5.056-0.6,7.593c-0.037,0.434-0.042,0.872-0.093,1.31c-0.411,3.939-0.582,7.93-1.313,11.804
			c-0.979,5.169-2.261,10.287-3.68,15.354c-1.11,3.97-2.638,7.827-3.979,11.728c-0.03,0.106-0.075,0.21-0.127,0.307
			c-1.672,3.063-3.528,6.038-4.971,9.205c-1.433,3.16-2.453,6.517-3.651,9.788c-0.163,0.468-0.267,0.951-0.448,1.409
			c-1.562,3.859-3.14,7.717-4.694,11.586c-1.034,2.575-2.045,5.157-3.071,7.728c-0.055,0.147-0.189,0.262-0.272,0.406
			c-0.958,1.613-1.912,3.232-2.862,4.846c-1.262,2.144-2.328,4.436-3.822,6.4c-2.1,2.754-4.44,5.338-6.814,7.854
			c-2.274,2.401-4.508,4.914-7.145,6.868c-3.673,2.726-7.682,5.021-11.594,7.424c-1.699,1.048-3.46,2.054-5.293,2.832
			c-3.08,1.29-6.208,2.485-9.374,3.53c-2.822,0.93-5.708,1.66-8.599,2.36c-2.438,0.589-4.918,1.006-7.383,1.495
			c-2.051,0.406-4.08,0.938-6.15,1.193c-2.427,0.289-4.878,0.344-7.324,0.499c-2.971,0.187-5.948,0.552-8.924,0.5
			c-3.831-0.052-7.677-0.331-11.493-0.728c-5.617-0.589-11.224-1.303-16.813-2.092c-4.705-0.665-9.386-1.51-14.079-2.271
			c-0.254-0.041-0.521-0.02-0.838-0.03c-0.741,2.226-1.613,4.349-2.14,6.548c-0.954,3.981-1.806,7.992-2.506,12.023
			c-0.479,2.769-0.624,5.591-0.92,8.389c-0.014,0.165,0.034,0.327,0.045,0.493c0.079,1.92,0.176,3.84,0.231,5.763
			c0.078,2.822,0.106,5.652,0.206,8.468c0.034,1.113,0.159,2.226,0.317,3.321c0.189,1.352,0.469,2.696,0.689,4.043
			c0.351,2.164,0.596,4.346,1.062,6.482c0.492,2.251,1.195,4.456,1.796,6.683c0.6,2.206,1.146,4.436,1.795,6.625
			c0.845,2.873,1.813,5.7,2.633,8.57c0.565,1.995,1.064,4.019,1.405,6.06c0.256,1.512,0.219,3.08,0.322,4.838
			c-1.808-0.883-3.234-1.482-4.558-2.257c-1.513-0.872-2.897-1.938-4.383-2.83c-1.327-0.8-2.754-1.427-4.077-2.219
			c-1.044-0.629-2.014-1.393-3.012-2.099c-1.117-0.79-2.24-1.579-3.363-2.368c-1.029-0.724-2.086-1.41-3.083-2.179
			c-1.609-1.227-3.167-2.519-4.766-3.77c-1.478-1.159-3.025-2.248-4.463-3.461c-1.451-1.223-2.819-2.547-4.201-3.853
			c-1.603-1.506-3.267-2.96-4.752-4.584c-2.092-2.288-4.054-4.711-6.055-7.089c-1.672-1.979-3.44-3.884-4.974-5.967
			c-1.537-2.088-2.894-4.313-4.229-6.543c-1.822-3.051-3.646-6.121-5.297-9.271c-1.409-2.683-2.663-5.457-3.835-8.252
			c-1.14-2.729-2.292-5.489-3.091-8.332c-0.886-3.147-1.185-6.452-2.081-9.589c-1.01-3.525-0.931-7.13-1.027-10.677
			c-0.087-3.112,0.667-6.251,1.096-9.366c0.113-0.855,0.398-1.689,0.603-2.51C107.651,246.203,106.399,245.431,105.062,244.831z"/>
	</g>
</g>
<g id="hello">
	
		<text transform="matrix(1 0 0 1 64.3179 154.6323)" opacity="0.7" fill="#FCFFFF" font-family="'CeraGR-BlackItalic'" font-size="65.5014">HELLO.</text>
</g>
</svg>
