<?xml version="1.0" encoding="utf-8"?>
<!-- Generator: Adobe Illustrator 16.0.0, SVG Export Plug-In . SVG Version: 6.00 Build 0)  -->
<!DOCTYPE svg PUBLIC "-//W3C//DTD SVG 1.1//EN" "http://www.w3.org/Graphics/SVG/1.1/DTD/svg11.dtd">
<svg version="1.1" xmlns="http://www.w3.org/2000/svg" xmlns:xlink="http://www.w3.org/1999/xlink" x="0px" y="0px"
	 width="364.588px" height="360px" viewBox="0 0 364.588 360" enable-background="new 0 0 364.588 360" xml:space="preserve">
<g id="big_x5F_cloud">
	
		<path opacity="0.7" fill="none" stroke="#FCFFFF" stroke-width="7" stroke-linecap="round" stroke-linejoin="round" stroke-miterlimit="10" d="
		M308.406,101.711c6.75-8.947,10.639-19.384,10.639-30.539c0-33.126-34.188-59.983-76.356-59.983
		c-23.666,0-44.817,8.462-58.822,21.741c-11.198-12.223-27.577-20.449-46.243-21.624c-35.02-2.206-65.199,21.166-68.927,52.705
		c-30.191,5.367-52.991,29.681-52.991,58.872c0,26.954,19.434,49.753,46.177,57.317c5.038,12.444,14.463,22.934,26.548,29.92
		c10.854,19.425,32.922,32.732,58.405,32.732c22.339,0,42.058-10.23,53.892-25.842c5.776,1.522,11.867,2.354,18.174,2.354
		c16.116,0,30.868-5.333,42.285-14.162c0.724,0.023,1.444,0.052,2.173,0.052c36.207,0,65.561-26.857,65.561-59.986
		C328.919,128.107,321.031,112.645,308.406,101.711z"/>
	<g opacity="0.7">
		<path fill="#FCFFFF" d="M110.05,66.519H98.224l-0.942,5.399h9.598l-1.114,6.641h-9.598l-1.713,9.598h-7.37l4.97-28.279h19.195
			L110.05,66.519z"/>
		<path fill="#FCFFFF" d="M117.248,88.156h-7.37l3.686-20.995h7.369L117.248,88.156z M121.918,56.042
			c0.886,0.843,1.328,1.878,1.328,3.106c0,1.2-0.442,2.221-1.328,3.063c-0.886,0.843-1.956,1.264-3.214,1.264
			c-1.256,0-2.32-0.414-3.191-1.243c-0.871-0.828-1.307-1.856-1.307-3.085c0-1.228,0.436-2.264,1.307-3.106
			c0.871-0.842,1.936-1.264,3.191-1.264C119.962,54.779,121.032,55.2,121.918,56.042z"/>
		<path fill="#FCFFFF" d="M143.256,68.661c1.371,1.342,2.057,3.099,2.057,5.27c0,0.686-0.085,1.5-0.257,2.442l-2.057,11.783h-7.369
			l1.928-11.055c0.114-0.571,0.172-1.042,0.172-1.414c0-0.857-0.271-1.528-0.814-2.014c-0.543-0.485-1.242-0.728-2.1-0.728
			c-1.828,0-2.914,0.971-3.256,2.914l-2.143,12.297h-7.37l3.685-20.995h6.728l-0.3,1.757c1.656-1.514,3.599-2.271,5.827-2.271
			C140.128,66.647,141.885,67.318,143.256,68.661z"/>
		<path fill="#FCFFFF" d="M173.42,67.161l-3.685,20.995h-6.898l0.3-1.8c-1.429,1.543-3.328,2.314-5.698,2.314
			c-2.714,0-4.921-0.964-6.62-2.892s-2.55-4.263-2.55-7.005c0-1.343,0.229-2.7,0.686-4.071s1.129-2.678,2.014-3.92
			c0.886-1.242,2.093-2.25,3.621-3.021s3.249-1.157,5.163-1.157c2.685,0,4.685,0.771,5.998,2.313l0.3-1.757H173.42z M162.944,80.787
			c0.871-0.885,1.32-1.985,1.35-3.299c0.028-1.257-0.336-2.285-1.093-3.085s-1.722-1.2-2.893-1.2c-1.257,0-2.307,0.457-3.149,1.371
			c-0.842,0.914-1.277,2.042-1.307,3.385c-0.028,1.228,0.321,2.228,1.05,2.999s1.679,1.157,2.85,1.157
			C161.009,82.115,162.072,81.672,162.944,80.787z"/>
		<path fill="#FCFFFF" d="M181.904,88.156h-7.37l5.656-32.135h7.369L181.904,88.156z"/>
		<path fill="#FCFFFF" d="M194.073,88.156h-7.37l5.656-32.135h7.369L194.073,88.156z"/>
		<path fill="#FCFFFF" d="M223.808,67.161l-3.428,19.41c-0.542,3.114-1.856,5.527-3.941,7.241s-4.599,2.571-7.541,2.571
			c-2,0-3.963-0.407-5.892-1.221c-1.928-0.814-3.563-2.006-4.905-3.578l4.284-4.927c1.229,1.057,2.328,1.842,3.299,2.356
			c0.972,0.514,2.043,0.771,3.214,0.771c2.342,0,3.728-1.143,4.156-3.428l0.129-0.814c-1.457,1-3.114,1.5-4.971,1.5
			c-2.199,0-3.984-0.678-5.355-2.035c-1.371-1.356-2.057-3.063-2.057-5.12c0-0.743,0.071-1.5,0.214-2.271l1.843-10.455h7.369
			l-1.8,10.198c-0.057,0.343-0.085,0.614-0.085,0.814c0,0.771,0.278,1.407,0.835,1.907c0.558,0.5,1.25,0.75,2.078,0.75
			c0.8,0,1.507-0.243,2.121-0.729s0.992-1.157,1.136-2.014l1.928-10.926H223.808z"/>
		<path fill="#FCFFFF" d="M228.95,95.74h-5.785l2.442-13.797h8.355L228.95,95.74z"/>
	</g>
	<g opacity="0.7">
		<path fill="#FCFFFF" d="M86.853,115.838c1.7,1.928,2.55,4.263,2.55,7.005c0,1.342-0.229,2.699-0.686,4.07s-1.128,2.678-2.014,3.92
			s-2.093,2.25-3.621,3.021c-1.528,0.771-3.249,1.157-5.163,1.157c-2.713,0-4.727-0.786-6.041-2.357l-1.628,9.512h-7.37
			l5.056-28.708h6.727l-0.343,2.014c1.428-1.686,3.399-2.528,5.913-2.528C82.946,112.946,85.153,113.91,86.853,115.838z
			 M80.79,120.68c-0.742-0.757-1.699-1.135-2.871-1.135c-1.285,0-2.356,0.436-3.213,1.307c-0.857,0.872-1.3,1.964-1.329,3.278
			c-0.028,1.257,0.336,2.285,1.093,3.085c0.757,0.8,1.721,1.2,2.892,1.2c1.257,0,2.313-0.457,3.171-1.371
			c0.856-0.914,1.3-2.042,1.328-3.385C81.89,122.43,81.532,121.437,80.79,120.68z"/>
		<path fill="#FCFFFF" d="M112.754,126.485H99.258c0.656,1.6,2.185,2.399,4.584,2.399c1.886,0,3.8-0.542,5.741-1.628l2.357,4.885
			c-2.714,1.885-5.628,2.828-8.741,2.828c-3.37,0-6.105-0.971-8.205-2.914s-3.149-4.413-3.149-7.413c0-3.256,1.179-6.02,3.535-8.291
			c2.356-2.271,5.206-3.406,8.548-3.406c2.913,0,5.256,0.893,7.026,2.678c1.771,1.785,2.657,3.963,2.657,6.534
			C113.611,123.701,113.325,125.143,112.754,126.485z M100.821,119.48c-0.729,0.557-1.264,1.321-1.606,2.292h7.455
			c-0.028-0.971-0.364-1.735-1.007-2.292c-0.643-0.557-1.421-0.835-2.335-0.835C102.386,118.645,101.55,118.923,100.821,119.48z"/>
		<path fill="#FCFFFF" d="M141.033,113.46l-3.685,20.995h-6.898l0.3-1.8c-1.429,1.543-3.328,2.314-5.698,2.314
			c-2.714,0-4.921-0.964-6.62-2.892s-2.55-4.263-2.55-7.005c0-1.343,0.229-2.7,0.686-4.071s1.129-2.678,2.014-3.92
			c0.886-1.242,2.093-2.25,3.621-3.021s3.249-1.157,5.163-1.157c2.685,0,4.685,0.771,5.998,2.313l0.3-1.757H141.033z
			 M130.558,127.085c0.871-0.885,1.32-1.985,1.35-3.299c0.028-1.257-0.336-2.285-1.093-3.085s-1.722-1.2-2.893-1.2
			c-1.257,0-2.307,0.457-3.149,1.371c-0.842,0.914-1.277,2.042-1.307,3.385c-0.028,1.228,0.321,2.228,1.05,2.999
			s1.679,1.157,2.85,1.157C128.622,128.414,129.686,127.971,130.558,127.085z"/>
		<path fill="#FCFFFF" d="M161.129,114.66c1.656,1.085,2.842,2.556,3.556,4.413l-5.441,3.599c-1.171-2.028-2.628-3.042-4.37-3.042
			c-1.313,0-2.393,0.457-3.234,1.371c-0.843,0.914-1.265,2.042-1.265,3.385c0,1.228,0.364,2.199,1.093,2.914
			c0.729,0.714,1.692,1.071,2.893,1.071c1.742,0,3.241-0.872,4.499-2.614l4.713,4.027c-1.028,1.6-2.371,2.864-4.027,3.792
			c-1.657,0.928-3.543,1.393-5.656,1.393c-3.171,0-5.806-0.985-7.905-2.957c-2.1-1.971-3.149-4.456-3.149-7.455
			c0-3.228,1.214-5.956,3.643-8.184c2.428-2.229,5.327-3.342,8.697-3.342C157.487,113.032,159.472,113.574,161.129,114.66z"/>
		<path fill="#FCFFFF" d="M187.265,126.485h-13.496c0.656,1.6,2.185,2.399,4.584,2.399c1.886,0,3.799-0.542,5.742-1.628l2.356,4.885
			c-2.714,1.885-5.628,2.828-8.741,2.828c-3.37,0-6.105-0.971-8.205-2.914s-3.149-4.413-3.149-7.413c0-3.256,1.179-6.02,3.535-8.291
			c2.356-2.271,5.206-3.406,8.548-3.406c2.914,0,5.256,0.893,7.027,2.678c1.771,1.785,2.656,3.963,2.656,6.534
			C188.122,123.701,187.836,125.143,187.265,126.485z M175.332,119.48c-0.729,0.557-1.264,1.321-1.606,2.292h7.455
			c-0.028-0.971-0.364-1.735-1.007-2.292c-0.643-0.557-1.421-0.835-2.335-0.835C176.896,118.645,176.061,118.923,175.332,119.48z"/>
		<path fill="#FCFFFF" d="M227.542,113.46l-3.685,20.995h-6.898l0.3-1.8c-1.428,1.543-3.328,2.314-5.698,2.314
			c-2.714,0-4.921-0.964-6.62-2.892s-2.55-4.263-2.55-7.005c0-1.343,0.229-2.7,0.686-4.071s1.129-2.678,2.015-3.92
			c0.885-1.242,2.092-2.25,3.62-3.021s3.249-1.157,5.163-1.157c2.685,0,4.685,0.771,5.998,2.313l0.301-1.757H227.542z
			 M217.066,127.085c0.871-0.885,1.32-1.985,1.35-3.299c0.028-1.257-0.336-2.285-1.093-3.085s-1.721-1.2-2.893-1.2
			c-1.257,0-2.307,0.457-3.149,1.371c-0.842,0.914-1.278,2.042-1.307,3.385c-0.028,1.228,0.321,2.228,1.05,2.999
			s1.679,1.157,2.85,1.157C215.131,128.414,216.194,127.971,217.066,127.085z"/>
		<path fill="#FCFFFF" d="M249.864,114.96c1.371,1.342,2.057,3.099,2.057,5.27c0,0.686-0.085,1.5-0.257,2.442l-2.057,11.783h-7.369
			l1.928-11.055c0.114-0.571,0.171-1.042,0.171-1.414c0-0.857-0.271-1.528-0.813-2.014c-0.543-0.485-1.243-0.728-2.1-0.728
			c-1.828,0-2.913,0.971-3.257,2.914l-2.142,12.297h-7.37l3.686-20.995h6.727l-0.3,1.757c1.656-1.514,3.599-2.271,5.827-2.271
			C246.737,112.946,248.493,113.617,249.864,114.96z"/>
		<path fill="#FCFFFF" d="M282,102.32l-5.655,32.135h-6.728l0.343-2.014c-1.428,1.685-3.398,2.528-5.912,2.528
			c-2.714,0-4.921-0.964-6.62-2.892s-2.55-4.263-2.55-7.005c0-1.343,0.229-2.7,0.686-4.071s1.129-2.678,2.014-3.92
			c0.886-1.242,2.093-2.25,3.621-3.021s3.249-1.157,5.163-1.157c2.714,0,4.728,0.785,6.041,2.356l2.229-12.939H282z
			 M269.554,127.085c0.871-0.885,1.32-1.985,1.35-3.299c0.028-1.257-0.336-2.285-1.093-3.085s-1.722-1.2-2.893-1.2
			c-1.257,0-2.307,0.457-3.149,1.371c-0.842,0.914-1.277,2.042-1.307,3.385c-0.028,1.228,0.321,2.228,1.05,2.999
			s1.679,1.157,2.85,1.157C267.618,128.414,268.682,127.971,269.554,127.085z"/>
	</g>
	<g opacity="0.7">
		<path fill="#FCFFFF" d="M169.359,156.692l-5.056,28.75h-7.37l1.586-8.998c-1.4,1.171-3.114,1.757-5.142,1.757
			c-2.714,0-4.921-0.964-6.62-2.892s-2.55-4.263-2.55-7.005c0-1.343,0.229-2.7,0.686-4.071s1.129-2.678,2.014-3.92
			c0.886-1.242,2.093-2.25,3.621-3.021s3.249-1.157,5.163-1.157c2.771,0,4.756,0.828,5.956,2.485l0.342-1.928H169.359z
			 M152.842,170.489c0.729,0.771,1.679,1.157,2.85,1.157c1.257,0,2.32-0.443,3.192-1.328c0.871-0.885,1.32-1.985,1.35-3.299
			c0.028-1.257-0.336-2.285-1.093-3.085s-1.722-1.2-2.893-1.2c-1.257,0-2.307,0.457-3.149,1.371
			c-0.842,0.914-1.277,2.042-1.307,3.385C151.764,168.718,152.113,169.718,152.842,170.489z"/>
		<path fill="#FCFFFF" d="M192.797,168.904c-0.514,3.028-1.757,5.334-3.728,6.92s-4.37,2.378-7.198,2.378
			c-2.942,0-5.327-0.807-7.155-2.421s-2.742-3.749-2.742-6.406c0-0.686,0.071-1.428,0.214-2.228l1.8-10.455h7.369l-1.971,11.44
			c-0.057,0.343-0.086,0.614-0.086,0.814c0,0.771,0.279,1.407,0.836,1.907s1.25,0.75,2.078,0.75c0.8,0,1.5-0.243,2.1-0.729
			c0.6-0.486,0.985-1.157,1.156-2.014l2.1-12.169h7.37L192.797,168.904z"/>
		<path fill="#FCFFFF" d="M203.252,177.688h-7.37l3.686-20.995h7.369L203.252,177.688z M207.922,145.574
			c0.886,0.843,1.328,1.878,1.328,3.106c0,1.2-0.442,2.221-1.328,3.063c-0.886,0.843-1.956,1.264-3.214,1.264
			c-1.256,0-2.32-0.414-3.191-1.243c-0.871-0.828-1.307-1.856-1.307-3.085c0-1.228,0.436-2.264,1.307-3.106
			c0.871-0.842,1.936-1.264,3.191-1.264C205.966,144.31,207.036,144.731,207.922,145.574z"/>
		<path fill="#FCFFFF" d="M229.645,169.718h-13.496c0.656,1.6,2.185,2.399,4.584,2.399c1.886,0,3.8-0.542,5.741-1.628l2.357,4.885
			c-2.714,1.885-5.628,2.828-8.741,2.828c-3.37,0-6.105-0.971-8.205-2.914s-3.149-4.413-3.149-7.413c0-3.256,1.179-6.02,3.535-8.291
			c2.356-2.271,5.206-3.406,8.548-3.406c2.913,0,5.256,0.893,7.026,2.678c1.771,1.785,2.657,3.963,2.657,6.534
			C230.502,166.933,230.216,168.375,229.645,169.718z M217.712,162.712c-0.729,0.557-1.264,1.321-1.606,2.292h7.455
			c-0.028-0.971-0.364-1.735-1.007-2.292c-0.643-0.557-1.421-0.835-2.335-0.835C219.276,161.877,218.44,162.156,217.712,162.712z"/>
		<path fill="#FCFFFF" d="M242.285,168.647c-0.058,0.457-0.086,0.757-0.086,0.9c0,0.885,0.343,1.5,1.028,1.842
			s1.757,0.514,3.213,0.514h1.715l-1.071,6.084c-0.943,0.143-1.857,0.214-2.742,0.214c-1.172,0-2.257-0.1-3.257-0.3
			c-1-0.2-2.007-0.543-3.021-1.028c-1.014-0.486-1.821-1.229-2.421-2.228c-0.6-1-0.899-2.214-0.899-3.642
			c0-0.657,0.071-1.414,0.214-2.271l1.071-5.956h-3.214l1.071-6.084h3.214l0.985-5.57h7.369l-1.028,5.57h5.827l-1.071,6.084h-5.826
			L242.285,168.647z"/>
		<path fill="#FCFFFF" d="M258.503,169.997c0.899,0.928,1.35,2.064,1.35,3.406c0,1.371-0.45,2.514-1.35,3.428
			s-2.035,1.371-3.406,1.371c-1.428,0-2.6-0.457-3.514-1.371s-1.371-2.057-1.371-3.428c0-1.342,0.457-2.478,1.371-3.406
			s2.086-1.393,3.514-1.393C256.468,168.604,257.604,169.068,258.503,169.997z"/>
	</g>
</g>
<g id="bubble_x5F_3">
	<path opacity="0.7" fill="none" stroke="#FCFFFF" stroke-width="5" stroke-miterlimit="10" d="M340.03,217.173
		c0,10.172-8.246,18.418-18.421,18.418l0,0c-10.172,0-18.419-8.247-18.419-18.418l0,0c0-10.174,8.247-18.421,18.419-18.421l0,0
		C331.784,198.752,340.03,206.999,340.03,217.173L340.03,217.173z"/>
</g>
<g id="bubble_x5F_2">
	<path opacity="0.7" fill="none" stroke="#FCFFFF" stroke-width="5" stroke-miterlimit="10" d="M358.448,280.896
		c0,10.171-8.246,18.418-18.421,18.418l0,0c-10.172,0-18.418-8.247-18.418-18.418l0,0c0-10.175,8.246-18.421,18.418-18.421l0,0
		C350.202,262.475,358.448,270.722,358.448,280.896L358.448,280.896z"/>
</g>
<g id="bubble_x5F_1">
	<path opacity="0.7" fill="none" stroke="#FCFFFF" stroke-width="5" stroke-miterlimit="10" d="M312.505,329.979
		c0,10.172-8.246,18.418-18.421,18.418l0,0c-10.172,0-18.418-8.246-18.418-18.418l0,0c0-10.175,8.246-18.422,18.418-18.422l0,0
		C304.259,311.557,312.505,319.804,312.505,329.979L312.505,329.979z"/>
</g>
</svg>
