<?xml version="1.0" encoding="utf-8"?>
<!-- Generator: Adobe Illustrator 16.0.0, SVG Export Plug-In . SVG Version: 6.00 Build 0)  -->
<!DOCTYPE svg PUBLIC "-//W3C//DTD SVG 1.1//EN" "http://www.w3.org/Graphics/SVG/1.1/DTD/svg11.dtd">
<svg version="1.1" xmlns="http://www.w3.org/2000/svg" xmlns:xlink="http://www.w3.org/1999/xlink" x="0px" y="0px" width="360px"
	 height="553.914px" viewBox="0 0 360 553.914" enable-background="new 0 0 360 553.914" xml:space="preserve">
<g id="music1">
	<path opacity="0.7" fill-rule="evenodd" clip-rule="evenodd" fill="#FCFFFF" d="M111.385,400.907
		c-4.836-3.555-6.138-3.68-12.572-0.373c-6.434,3.312-17.976,15.072-17.976,15.072c-1.169,1.232-2.05,2.744-3.251,3.944
		c-2.117,2.128-4.292,4.22-6.615,6.117c-2.357,1.923-3.249,4.509-3.719,7.282c-0.345,2.026-0.285,4.123-0.483,6.18
		c-0.257,2.57-0.358,5.193-0.957,7.692c-0.749,3.151-1.529,6.236-1.665,9.519c-0.104,2.44,0.706,4.631,1.191,6.91
		c0.299,1.396,1.121,2.672,1.678,4.021c0.379,0.934,0.624,1.928,1.072,2.821c1.121,2.224,2.361,4.391,3.475,6.618
		c0.922,1.858,1.8,3.742,2.594,5.66c1.451,3.52,2.865,7.057,4.222,10.609c0.812,2.118,1.435,4.308,2.257,6.416
		c0.79,2.051,1.744,4.042,2.591,6.074c0.114,0.276,0.142,0.725-0.004,0.961c-0.519,0.832-1.114,1.626-1.723,2.406
		c-1.529,1.98-3.255,3.826-4.586,5.929c-1.775,2.824-3.436,5.733-3.882,9.172c-0.319,2.437-0.563,4.854,0.164,7.241
		c0.164,0.55,0.54,1.048,0.679,1.599c0.337,1.372,0.39,2.844,0.933,4.114c0.93,2.169,2.03,4.23,3.617,6.088
		c1.728,2.031,3.6,3.783,5.859,5.141c1.957,1.177,3.993,2.202,6.316,2.452c1.375,0.148,2.775,0.431,4.135,0.311
		c2.131-0.176,4.265-0.527,6.344-1.036c1.365-0.332,2.632-1.059,3.931-1.629c0.494-0.216,0.995-0.432,1.44-0.725
		c1.233-0.802,2.452-1.63,3.653-2.468c0.835-0.586,1.737-1.122,2.437-1.842c1.214-1.254,2.412-2.56,3.415-3.984
		c1.763-2.499,3.502-5.029,5.003-7.692c1.435-2.55,2.545-5.279,3.81-7.929c1.212-2.534,2.144-5.059,0.735-7.876
		c-0.318-0.625-0.199-1.472-0.289-2.329c-1.37-1.549-2.944-3.181-4.349-4.949c-1.518-1.912-2.94-3.911-4.29-5.947
		c-1.232-1.846-2.395-3.745-3.433-5.707c-1.093-2.057-1.991-4.212-2.994-6.319l-4.353-10.739c-0.107-0.461-0.48-0.856-0.606-1.315
		c-0.679-2.327-1.368-4.646-1.942-6.996c-0.783-3.199-1.467-6.427-2.19-9.636c-0.028-0.123-0.025-0.252-0.031-0.372
		c-0.108-1.772-0.13-3.549-0.346-5.301c-0.135-1.104,0.307-1.688,1.195-2.123c0.331-0.17,0.71-0.288,1-0.516
		c1.549-1.239,3.078-2.488,4.605-3.742c0.624-0.513,1.254-1.007,1.842-1.547c1.187-1.075,2.314-2.213,3.537-3.244l3.931-3.035
		c9.303-6.791,4.84-17.852,1.396-25.842C114.745,408.054,116.221,404.465,111.385,400.907z M82.805,491.938
		c-1.393-3.246-2.977-6.415-4.437-9.638c-0.479-1.067-0.813-2.201-1.271-3.285c-1.493-3.564-3.154-7.063-4.487-10.685
		c-1.048-2.849-1.72-5.831-2.542-8.763c-0.529-1.881-0.591-3.785-0.341-5.728c0.341-2.611,0.473-5.25,0.867-7.847
		c0.338-2.247,0.943-4.451,1.375-6.685c0.21-1.086,0.282-2.196,0.46-3.656c0.268,0.521,0.48,0.767,0.511,1.023
		c0.558,5.275,2.727,10.11,4.15,15.139c0.871,3.06,1.671,6.144,2.674,9.158c1.926,5.809,3.925,11.599,5.996,17.359
		c1.282,3.558,2.712,7.068,4.165,10.56c1.354,3.271,2.82,6.483,4.24,9.72c0.081,0.185,0.233,0.335,0.324,0.518
		c0.23,0.452,0.652,0.946,0.585,1.357c-0.042,0.268-0.794,0.422-1.222,0.64c-0.71,0.369-1.385,0.812-2.125,1.108
		c-1.263,0.515-2.559,0.964-3.864,1.368c-0.129,0.046-0.505-0.365-0.612-0.627C85.76,499.3,84.364,495.584,82.805,491.938z
		 M108.965,539.032c-0.971,1.135-2.11,2.14-3.216,3.15c-0.658,0.603-1.337,1.24-2.128,1.626c-2.155,1.059-4.296,2.267-6.583,2.904
		c-3.858,1.068-7.577,0.423-10.752-2.179c-2.496-2.047-4.612-4.413-5.723-7.535c-0.189-0.527-0.725-0.928-0.966-1.445
		c-0.299-0.637-0.469-1.345-0.685-2.02c-0.081-0.272-0.077-0.585-0.202-0.832c-0.394-0.752-1.09-1.383-0.307-2.35
		c0.206-0.254-0.223-0.951-0.223-1.441c0.014-1.455,0.056-2.91,0.198-4.354c0.039-0.368,0.496-0.693,0.836-1.126
		c1.125,2.249,2.11,4.295,3.162,6.312c0.655,1.254,1.288,2.544,2.141,3.659c0.951,1.233,2.121,2.292,3.227,3.395
		c1.427,1.422,3.04,2.488,5.111,2.746c4.478,0.55,8.753-0.423,12.872-1.976c1.897-0.719,3.562-2.035,5.344-3.054
		c0.265-0.15,0.62-0.14,1.052-0.23C111.632,536.357,110.17,537.624,108.965,539.032z M113.986,437.198
		c-1.396,1.043-2.82,2.045-4.136,3.183c-1.08,0.93-1.964,2.082-3.008,3.058c-1.062,0.988-2.211,1.897-3.335,2.823
		c-1.462,1.209-2.904,2.441-4.421,3.572c-0.645,0.484-1.459,0.73-2.166,1.08c-1.707-2.462-0.976-7.343,1.027-9.398
		c1.737-1.778,3.541-3.397,5.511-4.899c1.782-1.347,3.314-3.023,4.982-4.529c1.117-1.009,2.258-1.997,3.391-2.997l3.304-2.439
		l0.098,0.295c0.268,0.861,0.491,1.616,0.633,2.138C117.022,433.424,113.986,437.198,113.986,437.198z M114.153,423.61l0.397,1.229
		c-0.669,0.413-3.468,2.448-3.468,2.448c-1.542,1.234-3.091,2.474-4.571,3.786c-1.639,1.464-3.175,3.043-4.818,4.507
		c-1.63,1.455-3.381,2.783-5.003,4.247c-1.058,0.957-1.978,2.068-2.977,3.087c-0.23,0.23-0.54,0.376-0.867,0.596
		c0.359,2.12,0.704,4.242,1.086,6.354c0.835,4.63,1.671,9.253,2.569,13.867c0.383,1.96,0.897,3.895,1.421,5.827
		c0.905,3.359,1.736,6.737,2.819,10.038c0.788,2.409,1.926,4.708,2.904,7.058c0.098,0.232,0.195,0.463,0.278,0.699l2.925,7.399
		c1.096,2.223,2.333,4.378,3.53,6.545c0.679,1.222,1.35,2.461,2.117,3.631c0.686,1.044,1.504,2.001,2.263,3.004
		c0.588,0.781,1.208,1.543,1.727,2.369c0.77,1.206,1.477,2.457,2.185,3.708c0.583,1.04,1.241,2.057,1.671,3.158
		c0.863,2.222,0.264,4.441-0.672,6.426c-0.947,2.012-2.273,3.861-3.576,5.674c-0.546,0.756-1.452,1.258-2.214,1.849
		c-0.964,0.748-1.946,1.471-2.921,2.208c-0.133,0.097-0.247,0.236-0.397,0.307c-3.6,1.774-7.176,3.688-11.172,4.37
		c-2.291,0.389-4.722,0.664-6.953-0.098c-1.587-0.548-3.042-1.613-4.407-2.641c-1.142-0.864-2.083-1.995-3.088-3.035
		c-0.223-0.23-0.352-0.557-0.498-0.857c-0.146-0.303-0.18-0.709-0.404-0.915c-2.343-2.113-2.556-5.113-3.05-7.882
		c-0.352-1.945-0.3-4.146,0.279-6.022c0.591-1.93,1.897-3.697,3.144-5.345c1.208-1.592,2.705-2.974,4.14-4.379
		c0.606-0.592,1.396-0.997,2.062-1.533c0.438-0.348,0.772-0.822,1.208-1.17c0.309-0.25,0.72-0.383,1.076-0.578
		c0.508-0.277,1.002-0.596,1.525-0.842c0.675-0.313,1.39-0.555,2.064-0.874c0.805-0.383,1.034-0.844,0.522-1.759
		c-0.721-1.285-1.219-2.694-1.782-4.067c-1.17-2.848-2.333-5.702-3.481-8.557c-1.435-3.562-2.678-7.214-4.311-10.679
		c-3.886-8.232-6.096-17.026-8.86-25.638c-1.087-3.409-1.728-6.974-2.517-10.476c-0.46-2.026-1.062-4.067-1.139-6.122
		c-0.077-1.971-1.076-4.089,0.337-5.96c0.961-1.267,2.034-2.449,3.089-3.651c1.055-1.208,2.155-2.375,3.22-3.574
		c1.246-1.414,2.461-2.863,3.739-4.262c1.305-1.43,2.615-2.855,4.014-4.189c1.075-1.03,2.294-1.914,3.453-2.861
		c1.466-1.191,2.932-2.391,4.404-3.578c0.658-0.53,1.306-1.067,1.999-1.562c3.505-2.288,5.901,0.699,7.673,1.424
		C108.165,406.864,111.862,416.772,114.153,423.61z"/>
</g>
<g id="music2">
	<path opacity="0.7" fill-rule="evenodd" clip-rule="evenodd" fill="#FCFFFF" d="M266.242,356.305
		c-2.277-0.181-4.492-0.477-6.71-0.491c-1.891-0.01-3.784,0.321-5.676,0.456c-1.65,0.122-3.309,0.132-4.957,0.3
		c-1.588,0.164-3.162,0.47-4.748,0.689c-0.791,0.115-1.594,0.169-2.396,0.243c-1.968,0.175-3.938,0.349-5.912,0.494
		c-0.366,0.028-0.747-0.087-1.117-0.131c-0.976-0.139-1.675,0.098-2.18,1.083c-0.807,1.571-1.789,3.05-2.699,4.571
		c-0.062,0.107-0.142,0.208-0.187,0.327c-1.208,3.061-2.458,6.114-3.613,9.198c-0.848,2.268-1.584,4.571-2.334,6.873
		c-0.153,0.452-0.068,0.988-0.24,1.427c-0.181,0.47-0.561,0.854-0.8,1.3c-0.205,0.379-0.529,0.831-0.463,1.19
		c0.474,2.461-0.703,4.567-1.345,6.788c-0.104,0.352,0.034,0.773,0.07,1.164c0.025,0.295,0.133,0.6,0.087,0.887
		c-0.354,2.305-0.828,4.597-1.084,6.907c-0.247,2.204-0.351,4.433-0.375,6.651c-0.026,2.443,0.021,4.895,0.199,7.328
		c0.162,2.252,0.546,4.49,0.803,6.541c-0.406,0.76-0.978,1.389-1.073,2.086c-0.416,3.119-2.608,4.682-5.036,6.096
		c-2.534,1.476-4.992,3.105-7.614,4.409c-2.735,1.354-5.599,2.464-8.463,3.544c-1.635,0.607-3.357,1.018-5.065,1.367
		c-0.986,0.201-2.034,0.135-3.05,0.146c-1.47,0.021-2.943,0.021-4.412-0.011c-0.533-0.012-1.068-0.118-1.594-0.215
		c-1.397-0.26-2.856-0.372-4.169-0.866c-2.006-0.751-3.965-1.661-5.826-2.713c-1.192-0.669-2.195-1.692-3.245-2.589
		c-1.777-1.512-2.884-3.511-3.841-5.582c-1.101-2.393-1.658-4.898-1.943-7.544c-0.268-2.431-0.019-4.757,0.435-7.071
		c0.27-1.355,1.056-2.605,1.546-3.928c0.195-0.533,0.164-1.151,0.339-1.698c0.748-2.386,2.304-4.241,3.944-6.083
		c2.305-2.586,5.312-4.055,8.366-5.391c2.283-0.99,4.752-1.539,7.13-2.318c0.943-0.303,1.88-0.621,2.782-1.022
		c0.254-0.108,0.479-0.494,0.543-0.79c0.445-2.156,0.776-4.335,1.277-6.48c0.511-2.203,1.226-4.365,1.748-6.568
		c0.875-3.701,1.702-7.42,2.483-11.146c0.423-2.033,0.762-4.083,1.039-6.142c0.34-2.464,0.53-4.955,0.859-7.423
		c0.129-0.992,0.488-1.949,0.7-2.938c0.301-1.424,0.339-2.945,0.879-4.268c0.88-2.152,1.444-4.422,2.905-6.382
		c1.958-2.635,4.34-4.749,6.735-6.928c1.901-1.728,3.46-3.836,5.117-5.818c1.326-1.586,2.458-3.352,3.882-4.832
		c1.948-2.033,4.144-3.667,7.172-3.93c2.991-0.261,5.964-0.763,8.909-1.327c1.672-0.317,3.252-1.069,4.913-1.428
		c1.901-0.407,3.847-0.592,5.772-0.884c1.605-0.24,3.199-0.508,4.8-0.73c0.767-0.108,1.547-0.137,2.316-0.185
		c2.228-0.139,4.46-0.306,6.688-0.386c1.866-0.074,3.747,0.018,5.609-0.086c1.813-0.099,3.618-0.401,5.428-0.522
		c1.782-0.119,3.575-0.099,5.354-0.182c1.101-0.056,2.19-0.199,3.286-0.282c0.966-0.074,1.937-0.164,2.904-0.167
		c1.183,0,2.366,0.122,3.544,0.101c1.219-0.028,2.431-0.213,3.646-0.254c0.981-0.034,1.97,0.004,2.949,0.077
		c1.524,0.1,3.046,0.264,4.562,0.4c2.261,0.198,4.559,0.216,6.771,0.654c2.495,0.491,5.085,1.038,7.312,2.183
		c1.219,0.62,1.875,2.473,2.623,3.862c1.485,2.757,0.181,5.226-0.942,7.705c-0.603,1.327-1.182,2.674-1.617,4.056
		c-1.489,4.773-2.898,9.57-4.379,14.341c-0.756,2.43-1.689,4.811-2.401,7.259c-0.961,3.329-1.788,6.706-2.683,10.052
		c-0.345,1.298-0.772,2.579-1.059,3.888c-0.727,3.262-1.431,6.529-2.067,9.808c-0.346,1.755-0.603,3.534-0.782,5.31
		c-0.248,2.416-0.479,4.84-0.54,7.262c-0.067,2.482,0.014,4.969,0.139,7.451c0.087,1.765,0.386,3.521,0.523,5.289
		c0.078,1.092,0.017,2.183,0.032,3.278c0.015,0.884,0.036,1.773,0.083,2.653c0.116,1.984,0.291,3.963,0.35,5.947
		c0.031,1.03-0.017,2.084-0.227,3.084c-0.531,2.566-1.158,5.111-1.774,7.657c-0.094,0.396-0.396,0.741-0.505,1.138
		c-0.648,2.302-1.805,4.309-3.33,6.145c-1.019,1.229-1.841,2.637-2.941,3.782c-0.988,1.019-2.29,1.72-3.345,2.685
		c-2.368,2.15-5.341,3.146-8.227,4.218c-1.787,0.663-3.784,0.826-5.711,1.028c-2.104,0.212-4.222,0.212-6.34,0.303
		c-0.122,0-0.251,0-0.372-0.017c-4.404-0.627-8.785-1.387-12.92-3.074c-1.528-0.627-2.833-1.79-4.31-2.563
		c-3.096-1.626-4.457-4.595-5.687-7.538c-0.73-1.743-0.802-3.771-1.094-5.685c-0.177-1.146-0.218-2.308-0.315-3.465
		c-0.015-0.164-0.021-0.334,0.006-0.494c0.581-3.458,0.762-7.012,2.256-10.24c0.711-1.544,1.644-3.018,2.66-4.387
		c1.152-1.545,2.36-3.122,3.826-4.352c2.358-1.969,4.774-3.913,7.952-4.57c2.643-0.547,4.293-1.424,4.728-4.119
		c0.175-1.08,0.116-2.218,0.009-3.318c-0.161-1.549-0.328-3.053-0.025-4.634c0.588-3.019,0.94-6.083,1.429-9.118
		c0.15-0.946,0.432-1.877,0.635-2.816c0.831-3.799,1.715-7.59,2.451-11.409C266.257,359.094,266.172,357.659,266.242,356.305z
		 M282.219,428.606c-0.073,0.194-0.094,0.495-0.23,0.564c-1.067,0.554-2.126,1.141-3.245,1.573c-2.799,1.089-5.524,2.476-8.65,2.416
		c-1.584-0.026-3.212,0.16-4.75-0.118c-3.599-0.642-6.91-2.071-9.738-4.446c-0.95-0.794-1.826-1.729-2.53-2.747
		c-1.396-2.009-2.743-4.059-3.05-6.602c-0.178-1.488-0.657-2.952-0.74-4.441c-0.077-1.416,0.231-2.846,0.295-4.271
		c0.04-1.053-0.038-2.113-0.07-3.483c-0.954,1.886-1.959,3.43-2.548,5.122c-0.855,2.466-1.936,4.895-1.657,7.65
		c0.181,1.805-0.251,3.746,0.227,5.44c0.633,2.241,1.385,4.461,3.153,6.329c2.221,2.354,4.633,4.176,7.691,5.111
		c2.067,0.637,4.103,1.383,6.36,1.25c2.099-0.125,4.272,0.384,6.315,0.035c2.554-0.435,5.15-0.898,7.485-2.27
		c2.411-1.414,4.977-2.564,6.712-4.898c0.415-0.565,1.032-0.977,1.468-1.528c0.388-0.494,0.657-1.09,0.979-1.644
		c-0.159-0.154-0.314-0.316-0.472-0.471c-0.08,0.15-0.129,0.383-0.249,0.433c-0.935,0.366-1.875,0.689-2.813,1.023
		c0.907-0.745,1.75-1.577,2.728-2.22c2.143-1.4,3.808-3.128,4.446-5.688c0.15-0.612,0.433-1.202,0.52-1.816
		c0.257-1.923,0.603-3.852,0.638-5.783c0.03-1.846-0.351-3.688-0.442-5.537c-0.092-1.866-0.025-3.738-0.056-5.607
		c-0.036-2.318-0.165-4.638-0.135-6.955c0.026-2.133,0.15-4.26,0.335-6.379c0.248-2.846,0.569-5.68,0.899-8.513
		c0.195-1.693,0.395-3.386,0.71-5.056c0.617-3.284,1.316-6.553,1.979-9.829c0.071-0.369,0.163-0.734,0.242-1.104
		c0.756-3.391,1.516-6.778,2.261-10.166c0.146-0.676,0.452-0.926,1.204-0.916c1.049,0.006,1.955-1.115,1.881-2.145
		c-0.015-0.192-0.229-0.512-0.369-0.526c-0.225-0.024-0.514,0.121-0.698,0.278c-0.135,0.123-0.1,0.432-0.227,0.571
		c-0.229,0.243-0.525,0.417-0.793,0.62c-0.209-0.324-0.664-0.755-0.581-0.955c0.424-1.009,0.015-2.384,1.312-3.046
		c0.175-0.085,0.123-0.665,0.129-1.016c0.015-0.432-0.124-0.888-0.021-1.288c0.502-1.867,1.075-3.708,1.604-5.571
		c1.955-6.98,3.894-13.964,5.841-20.948c0.226-0.794-0.091-1.173-0.878-1.307c-2.382-0.403-4.757-0.856-7.138-1.247
		c-2.053-0.34-4.114-0.625-6.17-0.929c-0.124-0.014-0.249,0.032-0.375,0.028c-1.642-0.048-3.29-0.08-4.937-0.167
		c-1.476-0.08-2.949-0.248-4.428-0.324c-0.937-0.048-1.888-0.018-2.828,0.01c-1.332,0.035-2.658,0.129-3.989,0.15
		c-1.188,0.02-2.375-0.101-3.559-0.036c-1.811,0.108-3.614,0.387-5.429,0.48c-1.904,0.095-3.815,0.042-5.719,0.08
		c-0.847,0.018-1.686,0.099-2.531,0.165c-1.881,0.157-3.768,0.32-5.65,0.48c-1.49,0.129-2.995,0.177-4.463,0.418
		c-1.908,0.32-3.795,0.759-5.683,1.205c-1.84,0.435-3.655,0.951-5.488,1.417c-1.556,0.394-3.118,0.735-4.675,1.142
		c-1.545,0.4-3.098,0.773-4.607,1.282c-2.221,0.749-2.589,3.063-3.635,4.734c-1.092,1.738-1.743,3.764-2.501,5.699
		c-1.316,3.34-2.801,6.644-3.815,10.076c-2.568,8.669-5.694,17.182-7.116,26.175c-0.601,3.785-1.63,7.504-2.452,11.254
		c-0.653,3.007-1.301,6.018-1.938,9.033c-0.304,1.449-0.69,2.896-0.816,4.358c-0.093,1.048-0.542,1.304-1.42,1.167
		c-0.739-0.119-1.461-0.319-2.2-0.442c-0.571-0.089-1.156-0.107-1.734-0.163c-0.407-0.037-0.815-0.16-1.214-0.125
		c-0.554,0.037-1.1,0.24-1.658,0.282c-0.854,0.073-1.729-0.042-2.566,0.108c-1.977,0.354-3.992,0.649-5.888,1.291
		c-1.952,0.654-4.031,1.385-5.604,2.643c-1.532,1.225-2.817,3.018-3.625,4.822c-1.148,2.566-2.658,5.169-1.913,8.229
		c0.068,0.298-0.134,0.652-0.181,0.986c-0.051,0.328-0.129,0.676-0.075,0.992c0.249,1.424,0.391,2.891,0.847,4.243
		c0.551,1.62,1.152,3.32,2.155,4.663c1.413,1.891,3.579,3.025,5.688,3.994c3.688,1.692,7.722,2.119,11.7,2.684
		c0.159,0.027,0.334-0.028,0.496-0.035c1.223-0.06,2.437-0.102,3.655-0.178c0.965-0.059,1.995,0.039,2.873-0.281
		c2.099-0.766,4.232-1.546,6.15-2.678c1.893-1.114,3.633-2.611,4.173-4.93c0.268-1.152,0.295-2.364,0.396-3.552
		c0.121-1.431,0.238-2.865,0.284-4.296c0.036-0.976-0.047-1.953-0.093-2.93c-0.062-1.255-0.199-2.51-0.179-3.759
		c0.021-1.393,0.164-2.796,0.293-4.187c0.23-2.469,0.421-4.945,0.766-7.399c0.144-1.017,1.06-2.082,0.857-2.95
		c-0.427-1.834,0.479-3.237,0.896-4.811c0.062-0.244,0.113-0.488,0.163-0.734c0.511-2.492,0.865-5.035,1.569-7.469
		c0.968-3.334,2.18-6.601,3.326-9.883c0.654-1.891,1.318-3.778,2.104-5.616c1.855-4.321,3.773-8.61,5.683-12.907
		c0.874-1.964,1.784-3.91,2.683-5.864c0.391,0.003,0.731,0.057,1.051-0.007c1.399-0.278,2.786-0.679,4.2-0.874
		c2.164-0.296,4.358-0.41,6.526-0.696c2.18-0.282,4.338-0.721,6.518-1.007c1.96-0.254,3.938-0.403,5.912-0.561
		c2.222-0.17,4.449-0.334,6.677-0.411c2.564-0.09,5.132-0.111,7.702-0.101c1.978,0.007,3.954,0.029,5.918,0.198
		c2.664,0.23,5.316,0.606,8.154,0.943c-0.181,0.607-0.268,1.334-0.592,1.926c-1.658,3.046-2.615,6.33-3.521,9.637
		c-0.351,1.292-0.71,2.587-0.922,3.903c-0.419,2.615-0.74,5.243-1.094,7.868c-0.247,1.845-0.473,3.701-0.71,5.546
		c-0.007,0.087-0.007,0.171-0.007,0.255c0.032,1.424,0.108,2.855,0.077,4.282c-0.031,1.347-0.213,2.691-0.259,4.036
		c-0.037,1.099,0.012,2.206,0.039,3.313c0.037,1.261,0.135,2.528,0.129,3.788c-0.006,1.27-0.134,2.538-0.156,3.805
		c-0.029,1.665,0.003,3.322-0.022,4.983c-0.021,1.312-0.059,2.634-0.124,3.946c-0.057,1.088-0.175,2.168-0.272,3.451
		c-0.725-0.316-1.106-0.47-1.48-0.65c-1.106-0.537-2.167-1.202-3.319-1.609c-1.721-0.617-3.464-1.131-5.37-0.915
		c-1.8,0.196-3.677-0.052-5.436,0.306c-2.763,0.568-5.419,1.613-7.422,3.74c-1.083,1.145-2.291,2.34-2.895,3.743
		c-1.558,3.61-2.201,7.349-1.161,11.328c0.797,3.07,2.335,5.718,4.448,7.857c1.732,1.759,4.062,2.962,6.237,4.231
		c0.985,0.572,2.228,1.002,3.348,0.984c2.288-0.039,4.575,0.602,6.87-0.129c2.204-0.696,4.467-1.229,6.707-1.812
		C280.007,429.144,281.111,428.882,282.219,428.606z M232.352,352.544c0.781,0.115,1.595,0.37,2.396,0.331
		c1.894-0.08,3.777-0.288,5.668-0.466c1.453-0.128,2.908-0.233,4.345-0.456c1.414-0.219,2.79-0.668,4.21-0.832
		c1.724-0.199,3.472-0.224,5.209-0.3c2.159-0.091,4.357-0.446,6.468-0.16c3.301,0.446,6.553,1.312,9.808,2.065
		c0.334,0.076,0.797,0.584,0.805,0.908c0.055,1.752,0.108,3.52-0.07,5.262c-0.222,2.228-0.657,4.432-0.998,6.646
		c-0.024,0.121-0.021,0.247-0.031,0.372c-0.192,2.176-0.328,4.358-0.6,6.521c-0.289,2.306-0.716,4.597-1.08,6.891
		c-0.017,0.121,0.009,0.25,0.005,0.375c-0.123,1.964-0.241,3.924-0.361,5.895c-0.077,1.275-0.249,2.557-0.204,3.823
		c0.071,1.926,0.44,3.847,0.4,5.765c-0.024,1.209,0.586,1.506,1.451,1.764c1.896,0.562,3.798,1.096,5.683,1.67
		c1.222,0.372,1.728-0.098,1.665-1.372c-0.084-1.587-0.027-3.183,0.014-4.78c0.031-1.26,0.153-2.52,0.181-3.788
		c0.025-0.974-0.027-1.956-0.056-2.935c-0.037-1.298-0.129-2.604-0.125-3.902c0.005-1.233,0.14-2.469,0.14-3.697
		c-0.006-2.284-0.149-4.568-0.094-6.846c0.055-2.266,0.181-4.533,0.459-6.778c0.32-2.517,0.693-5.052,1.33-7.507
		c0.995-3.815,2.238-7.565,3.363-11.35c0.186-0.626,0.296-1.277,0.469-2.047c-0.983-0.219-1.835-0.526-2.688-0.561
		c-1.256-0.046-2.537,0.289-3.774,0.146c-2.307-0.268-4.581-0.804-6.877-1.136c-1.423-0.201-2.878-0.403-4.294-0.292
		c-2.239,0.177-4.45,0.637-6.674,0.943c-2.005,0.275-4.021,0.48-6.023,0.759c-2.224,0.303-4.433,0.826-6.664,0.937
		c-2.475,0.129-4.875,0.459-7.314,0.951C235.68,345.931,232.325,349.551,232.352,352.544z M220.706,326.147
		c-0.972,1.104-1.656,1.98-2.441,2.764c-1.615,1.602-3.354,3.085-4.897,4.75c-1.788,1.925-3.384,4.031-5.136,5.995
		c-1.301,1.47-2.323,3.078-2.945,4.931c-0.972,2.882-2.096,5.726-2.829,8.668c-0.937,3.743-1.537,7.572-2.31,11.357
		c-0.23,1.152-0.596,2.28-0.797,3.43c-0.609,3.485-1.084,6.995-1.766,10.465c-0.764,3.893-1.699,7.746-2.533,11.624
		c-0.061,0.275,0.021,0.825,0.149,0.864c1.308,0.402,2.635,0.76,3.969,1.045c0.772,0.17,1.585,0.185,2.373,0.277
		c0.478,0.062,1.188,0.359,1.372,0.16c0.289-0.303,0.217-0.946,0.282-1.447c0.027-0.206-0.017-0.414,0.021-0.613
		c0.647-3.475,1.246-6.956,1.968-10.416c0.769-3.705,1.563-7.41,2.506-11.076c1.528-5.925,3.142-11.836,4.816-17.72
		c0.87-3.058,1.946-6.055,2.952-9.073c1.652-4.962,2.578-10.176,5.09-14.853C220.669,327.049,220.63,326.732,220.706,326.147z
		 M176.891,402.511c-0.525,0.168-1.085,0.178-1.32,0.457c-0.932,1.119-1.788,2.299-2.613,3.492
		c-0.282,0.404-0.317,1.219-0.631,1.312c-1.194,0.363-0.972,1.277-1.072,2.116c-0.034,0.276-0.213,0.53-0.3,0.806
		c-0.201,0.679-0.455,1.354-0.571,2.049c-0.09,0.564,0.127,1.196-0.017,1.738c-0.839,3.211-0.422,6.358,0.488,9.453
		c1.157,3.94,3.872,6.566,7.658,7.852c2.252,0.766,4.7,0.967,7.075,1.308c0.869,0.126,1.793-0.021,2.677-0.146
		c1.483-0.214,2.99-0.404,4.433-0.795c1.785-0.483,3.712-0.705,5.281-2.146c-0.406-0.168-0.693-0.378-0.998-0.4
		c-2.047-0.164-4.164-0.011-6.133-0.483c-4.283-1.038-8.357-2.642-11.755-5.618c-1.564-1.379-2.297-3.168-2.675-5.148
		c-0.297-1.535-0.666-3.068-0.756-4.617c-0.081-1.398,0.12-2.826,0.288-4.232C176.218,407.246,176.553,405.003,176.891,402.511z"/>
</g>
<g id="music3">
	<path opacity="0.7" fill-rule="evenodd" clip-rule="evenodd" fill="#FCFFFF" d="M87.331,243.777
		c-2.137,0.804-4.268,1.476-6.284,2.398c-1.717,0.794-3.291,1.895-4.944,2.824c-1.445,0.807-2.946,1.521-4.362,2.371
		c-1.373,0.822-2.667,1.768-4.011,2.64c-0.668,0.439-1.368,0.828-2.064,1.231c-1.709,0.993-3.419,1.985-5.146,2.96
		c-0.32,0.177-0.71,0.236-1.068,0.348c-0.943,0.289-1.473,0.798-1.514,1.908c-0.067,1.765-0.331,3.519-0.506,5.288
		c-0.01,0.121-0.038,0.248-0.031,0.373c0.206,3.283,0.365,6.579,0.626,9.859c0.196,2.412,0.505,4.811,0.801,7.217
		c0.056,0.473,0.354,0.922,0.39,1.393c0.035,0.504-0.146,1.01-0.174,1.518c-0.024,0.429-0.125,0.975,0.087,1.271
		c1.47,2.03,1.298,4.439,1.66,6.719c0.057,0.363,0.358,0.689,0.554,1.021c0.15,0.262,0.376,0.499,0.457,0.773
		c0.654,2.235,1.201,4.508,1.949,6.716c0.71,2.099,1.56,4.16,2.479,6.181c1.01,2.224,2.092,4.424,3.287,6.551
		c1.106,1.972,2.398,3.833,3.502,5.582c-0.045,0.859-0.299,1.674-0.084,2.346c0.94,3.004-0.382,5.348-1.98,7.656
		c-1.671,2.413-3.203,4.933-5.024,7.22c-1.908,2.392-4.028,4.61-6.166,6.8c-1.218,1.242-2.608,2.342-4.007,3.384
		c-0.808,0.602-1.782,0.985-2.699,1.426c-1.322,0.642-2.656,1.265-4,1.861c-0.487,0.216-1.016,0.347-1.539,0.484
		c-1.375,0.354-2.743,0.874-4.144,0.981c-2.129,0.17-4.292,0.177-6.427,0.014c-1.361-0.101-2.698-0.602-4.032-0.967
		c-2.252-0.617-4.101-1.957-5.845-3.429c-2.013-1.7-3.583-3.729-4.961-6.006c-1.275-2.089-2.034-4.3-2.602-6.591
		c-0.334-1.34-0.149-2.802-0.264-4.211c-0.052-0.565-0.345-1.116-0.417-1.682c-0.337-2.476,0.289-4.823,0.992-7.18
		c0.988-3.317,3.091-5.928,5.296-8.432c1.646-1.862,3.648-3.412,5.469-5.121c0.728-0.672,1.442-1.361,2.089-2.103
		c0.181-0.208,0.223-0.654,0.153-0.947c-0.509-2.141-1.135-4.258-1.587-6.41c-0.475-2.214-0.742-4.474-1.205-6.694
		c-0.773-3.723-1.604-7.44-2.476-11.146c-0.48-2.019-1.044-4.021-1.661-6.003c-0.741-2.377-1.623-4.71-2.371-7.087
		c-0.303-0.955-0.383-1.974-0.609-2.956c-0.334-1.421-0.943-2.81-1.016-4.238c-0.115-2.325-0.568-4.62-0.077-7.011
		c0.661-3.217,1.921-6.142,3.165-9.132c0.985-2.371,1.504-4.941,2.168-7.437c0.523-2.001,0.801-4.081,1.467-6.022
		c0.901-2.667,2.196-5.08,4.829-6.602c2.596-1.504,5.075-3.221,7.506-4.982c1.378-0.996,2.489-2.346,3.839-3.377
		c1.55-1.174,3.234-2.163,4.854-3.245c1.354-0.898,2.684-1.822,4.039-2.699c0.65-0.425,1.344-0.779,2.016-1.152
		c1.964-1.069,3.916-2.165,5.895-3.185c1.66-0.857,3.397-1.571,5.044-2.452c1.602-0.859,3.109-1.9,4.697-2.778
		c1.563-0.864,3.192-1.605,4.772-2.433c0.968-0.516,1.897-1.108,2.855-1.647c0.842-0.478,1.685-0.972,2.556-1.385
		c1.072-0.501,2.196-0.892,3.255-1.411c1.09-0.539,2.109-1.222,3.196-1.775c0.871-0.449,1.783-0.833,2.702-1.181
		c1.424-0.557,2.869-1.055,4.299-1.577c2.134-0.774,4.22-1.733,6.41-2.277c2.473-0.613,5.048-1.215,7.552-1.122
		c1.368,0.046,2.746,1.445,4.007,2.385c2.517,1.866,2.381,4.655,2.413,7.381c0.018,1.456,0.065,2.918,0.26,4.353
		c0.673,4.958,1.431,9.898,2.113,14.845c0.345,2.524,0.509,5.075,0.905,7.597c0.54,3.422,1.223,6.827,1.835,10.236
		c0.233,1.326,0.391,2.663,0.686,3.972c0.729,3.263,1.478,6.521,2.286,9.759c0.431,1.733,0.953,3.453,1.544,5.138
		c0.797,2.294,1.615,4.589,2.591,6.811c0.992,2.276,2.12,4.494,3.284,6.688c0.829,1.563,1.844,3.022,2.715,4.571
		c0.536,0.951,0.942,1.968,1.42,2.949c0.39,0.797,0.786,1.591,1.202,2.371c0.946,1.748,1.941,3.465,2.84,5.236
		c0.462,0.92,0.867,1.898,1.1,2.89c0.608,2.549,1.117,5.122,1.641,7.688c0.078,0.397-0.042,0.839,0.026,1.243
		c0.384,2.36,0.195,4.672-0.411,6.98c-0.402,1.542-0.552,3.167-1.061,4.668c-0.463,1.344-1.348,2.531-1.893,3.851
		c-1.233,2.952-3.504,5.115-5.659,7.308c-1.337,1.358-3.081,2.357-4.737,3.353c-1.81,1.086-3.737,1.981-5.613,2.959
		c-0.11,0.059-0.227,0.108-0.345,0.146c-4.254,1.303-8.543,2.468-13.003,2.695c-1.649,0.084-3.325-0.421-4.992-0.494
		c-3.493-0.16-5.985-2.273-8.346-4.415c-1.4-1.271-2.323-3.074-3.401-4.684c-0.645-0.963-1.177-2.001-1.755-3.007
		c-0.08-0.142-0.16-0.289-0.203-0.448c-0.939-3.378-2.284-6.674-2.301-10.23c-0.006-1.698,0.209-3.429,0.55-5.1
		c0.39-1.887,0.812-3.83,1.623-5.567c1.298-2.782,2.663-5.564,5.264-7.51c2.158-1.616,3.284-3.112,2.535-5.734
		c-0.3-1.052-0.84-2.058-1.404-3.008c-0.8-1.338-1.591-2.625-1.988-4.189c-0.745-2.983-1.724-5.904-2.57-8.86
		c-0.268-0.925-0.407-1.883-0.62-2.82c-0.859-3.795-1.667-7.6-2.618-11.374C88.528,246.294,87.843,245.034,87.331,243.777z
		 M132.459,302.479c0.012,0.208,0.125,0.491,0.032,0.613c-0.731,0.954-1.443,1.933-2.271,2.799
		c-2.074,2.177-3.955,4.586-6.809,5.859c-1.454,0.645-2.842,1.504-4.355,1.905c-3.535,0.947-7.138,1.059-10.703,0.105
		c-1.198-0.32-2.388-0.794-3.457-1.417c-2.117-1.229-4.206-2.514-5.561-4.687c-0.793-1.274-1.849-2.396-2.556-3.708
		c-0.668-1.25-0.996-2.678-1.545-3.994c-0.404-0.971-0.926-1.897-1.535-3.123c-0.066,2.11-0.324,3.938-0.139,5.721
		c0.271,2.589,0.32,5.25,1.741,7.628c0.933,1.559,1.365,3.499,2.517,4.832c1.525,1.761,3.144,3.451,5.539,4.398
		c3.009,1.186,5.968,1.81,9.133,1.368c2.144-0.307,4.299-0.488,6.29-1.571c1.846-1.002,4.032-1.463,5.733-2.646
		c2.126-1.476,4.283-2.995,5.819-5.229c1.58-2.306,3.415-4.429,3.997-7.284c0.139-0.686,0.523-1.316,0.683-2.005
		c0.144-0.613,0.133-1.267,0.191-1.901c-0.208-0.073-0.417-0.157-0.627-0.23c-0.011,0.17,0.05,0.401-0.042,0.499
		c-0.693,0.727-1.406,1.42-2.113,2.123c0.504-1.059,0.915-2.172,1.532-3.168c1.337-2.179,2.117-4.446,1.609-7.036
		c-0.118-0.616-0.114-1.271-0.299-1.866c-0.582-1.853-1.088-3.747-1.876-5.509c-0.754-1.685-1.881-3.192-2.745-4.825
		c-0.874-1.654-1.609-3.38-2.429-5.055c-1.017-2.085-2.113-4.132-3.075-6.243c-0.878-1.943-1.665-3.924-2.4-5.921
		c-0.982-2.678-1.893-5.383-2.796-8.088c-0.539-1.617-1.077-3.234-1.502-4.881c-0.829-3.235-1.584-6.493-2.375-9.742
		c-0.087-0.365-0.16-0.735-0.243-1.1c-0.755-3.392-1.504-6.782-2.267-10.167c-0.154-0.675,0.021-1.031,0.703-1.336
		c0.955-0.442,1.303-1.838,0.794-2.743c-0.098-0.167-0.421-0.37-0.556-0.317c-0.213,0.073-0.416,0.327-0.512,0.546
		c-0.071,0.165,0.09,0.432,0.034,0.614c-0.1,0.316-0.298,0.598-0.456,0.897c-0.324-0.203-0.922-0.403-0.93-0.62
		c-0.046-1.09-1-2.165-0.101-3.314c0.118-0.153-0.174-0.655-0.314-0.976c-0.17-0.394-0.491-0.754-0.567-1.155
		c-0.337-1.905-0.595-3.816-0.908-5.728c-1.195-7.148-2.399-14.298-3.597-21.447c-0.128-0.814-0.578-1.026-1.348-0.81
		c-2.326,0.641-4.668,1.243-6.995,1.895c-2.001,0.563-3.99,1.18-5.978,1.779c-0.119,0.038-0.212,0.131-0.327,0.184
		c-1.514,0.652-3.018,1.32-4.547,1.943c-1.368,0.55-2.771,1.023-4.146,1.581c-0.867,0.355-1.716,0.787-2.556,1.208
		c-1.19,0.595-2.356,1.246-3.551,1.828c-1.065,0.522-2.193,0.919-3.234,1.479c-1.594,0.864-3.108,1.884-4.71,2.733
		c-1.686,0.895-3.44,1.654-5.147,2.5c-0.761,0.376-1.489,0.804-2.221,1.222c-1.643,0.936-3.279,1.887-4.918,2.83
		c-1.295,0.749-2.64,1.431-3.865,2.273c-1.595,1.097-3.116,2.294-4.634,3.496c-1.479,1.176-2.911,2.412-4.369,3.61
		c-1.243,1.016-2.514,1.995-3.75,3.019c-1.229,1.017-2.479,2.012-3.631,3.113c-1.692,1.622-1.045,3.872-1.282,5.828
		c-0.253,2.039,0.018,4.15,0.146,6.225c0.226,3.582,0.285,7.204,0.818,10.745c1.352,8.94,2.135,17.971,4.658,26.721
		c1.059,3.68,1.704,7.485,2.552,11.231c0.679,3.002,1.368,6.003,2.072,9.003c0.337,1.442,0.605,2.915,1.11,4.296
		c0.358,0.985,0.059,1.404-0.794,1.655c-0.717,0.208-1.462,0.33-2.18,0.532c-0.556,0.163-1.093,0.393-1.64,0.588
		c-0.382,0.14-0.808,0.202-1.152,0.4c-0.486,0.272-0.89,0.686-1.381,0.961c-0.742,0.425-1.585,0.697-2.277,1.184
		c-1.64,1.159-3.339,2.284-4.784,3.663c-1.494,1.427-3.068,2.966-3.958,4.777c-0.868,1.758-1.271,3.924-1.233,5.901
		c0.046,2.814-0.223,5.811,1.751,8.269c0.188,0.236,0.157,0.644,0.254,0.967c0.098,0.317,0.171,0.665,0.355,0.926
		c0.829,1.188,1.573,2.455,2.562,3.489c1.188,1.228,2.455,2.513,3.934,3.308c2.08,1.111,4.522,1.222,6.846,1.204
		c4.055-0.031,7.889-1.354,11.729-2.531c0.157-0.046,0.293-0.167,0.439-0.241c1.079-0.57,2.163-1.127,3.235-1.712
		c0.849-0.463,1.823-0.815,2.481-1.473c1.578-1.584,3.179-3.196,4.435-5.034c1.239-1.807,2.184-3.903,1.686-6.232
		c-0.244-1.156-0.731-2.267-1.146-3.388c-0.497-1.347-0.995-2.694-1.563-4.006c-0.379-0.898-0.87-1.748-1.326-2.614
		c-0.592-1.111-1.246-2.188-1.758-3.33c-0.567-1.274-1.034-2.604-1.507-3.92c-0.839-2.329-1.712-4.654-2.444-7.021
		c-0.302-0.982,0.077-2.337-0.474-3.033c-1.166-1.48-0.939-3.141-1.232-4.739c-0.046-0.247-0.104-0.491-0.16-0.733
		c-0.596-2.476-1.352-4.93-1.745-7.43c-0.542-3.43-0.825-6.901-1.183-10.361c-0.209-1.992-0.408-3.984-0.473-5.979
		c-0.15-4.7-0.238-9.397-0.324-14.1c-0.043-2.149-0.043-4.297-0.06-6.445c0.355-0.163,0.686-0.26,0.95-0.453
		c1.149-0.846,2.236-1.796,3.433-2.573c1.835-1.187,3.774-2.217,5.616-3.397c1.855-1.177,3.621-2.494,5.473-3.677
		c1.671-1.059,3.394-2.037,5.117-3.012c1.94-1.096,3.889-2.188,5.877-3.202c2.28-1.174,4.599-2.282,6.928-3.36
		c1.793-0.833,3.597-1.651,5.449-2.329c2.503-0.923,5.066-1.703,7.781-2.602c0.095,0.624,0.321,1.319,0.283,1.995
		c-0.209,3.458,0.313,6.838,0.897,10.219c0.227,1.32,0.45,2.643,0.818,3.927c0.728,2.545,1.55,5.059,2.347,7.587
		c0.561,1.778,1.142,3.555,1.709,5.326c0.028,0.08,0.062,0.157,0.101,0.23c0.63,1.281,1.306,2.542,1.884,3.851
		c0.54,1.229,0.947,2.524,1.479,3.763c0.432,1.01,0.944,1.992,1.438,2.984c0.567,1.124,1.193,2.232,1.723,3.377
		c0.537,1.148,0.957,2.354,1.473,3.513c0.675,1.518,1.414,3.005,2.096,4.519c0.536,1.199,1.062,2.41,1.556,3.628
		c0.408,1.007,0.763,2.038,1.217,3.242c-0.788,0.02-1.203,0.045-1.613,0.038c-1.232-0.018-2.472-0.17-3.69-0.052
		c-1.818,0.173-3.618,0.448-5.251,1.448c-1.545,0.941-3.352,1.511-4.79,2.583c-2.27,1.685-4.227,3.759-5.142,6.531
		c-0.491,1.501-1.08,3.092-1.034,4.625c0.121,3.926,1.121,7.585,3.753,10.747c2.026,2.444,4.539,4.186,7.364,5.229
		c2.314,0.861,4.933,0.964,7.44,1.19c1.135,0.102,2.443-0.042,3.454-0.532c2.053-1.002,4.396-1.394,6.161-3.028
		c1.704-1.566,3.527-3.006,5.306-4.485C130.683,303.907,131.571,303.2,132.459,302.479z M55.047,254.745
		c0.751-0.231,1.597-0.345,2.307-0.722c1.682-0.874,3.301-1.862,4.934-2.823c1.261-0.73,2.539-1.445,3.746-2.255
		c1.185-0.794,2.243-1.791,3.454-2.54c1.483-0.911,3.05-1.674,4.595-2.479c1.915-0.999,3.753-2.255,5.787-2.889
		c3.178-0.995,6.493-1.588,9.759-2.288c0.334-0.073,0.971,0.192,1.118,0.478c0.793,1.566,1.587,3.147,2.165,4.801
		c0.741,2.109,1.281,4.29,1.911,6.442c0.032,0.121,0.087,0.232,0.129,0.347c0.749,2.054,1.553,4.087,2.225,6.16
		c0.713,2.214,1.299,4.466,1.946,6.698c0.034,0.122,0.111,0.227,0.16,0.342c0.725,1.828,1.445,3.656,2.172,5.49
		c0.471,1.187,0.861,2.42,1.438,3.551c0.881,1.709,2.027,3.296,2.804,5.047c0.494,1.104,1.172,1.115,2.067,0.979
		c1.949-0.292,3.9-0.612,5.852-0.892c1.264-0.185,1.525-0.82,0.927-1.946c-0.749-1.406-1.375-2.875-2.017-4.338
		c-0.507-1.156-0.932-2.346-1.44-3.509c-0.394-0.894-0.856-1.761-1.296-2.632c-0.588-1.163-1.221-2.305-1.769-3.482
		c-0.519-1.118-0.918-2.294-1.441-3.408c-0.975-2.064-2.075-4.073-2.986-6.16c-0.91-2.075-1.763-4.18-2.458-6.333
		c-0.776-2.42-1.516-4.867-1.979-7.363c-0.717-3.88-1.18-7.803-1.769-11.706c-0.098-0.648-0.271-1.281-0.442-2.054
		c-0.985,0.223-1.879,0.302-2.674,0.629c-1.155,0.495-2.175,1.341-3.353,1.738c-2.204,0.735-4.491,1.215-6.712,1.887
		c-1.372,0.419-2.774,0.857-4.011,1.556c-1.953,1.11-3.76,2.462-5.646,3.684c-1.696,1.101-3.437,2.141-5.132,3.239
		c-1.887,1.218-3.667,2.631-5.638,3.68c-2.186,1.167-4.222,2.479-6.224,3.958C55.255,247.338,53.751,252.042,55.047,254.745z
		 M33.304,235.773c-0.411,1.413-0.658,2.5-1.038,3.536c-0.784,2.138-1.73,4.22-2.423,6.378c-0.804,2.504-1.354,5.087-2.106,7.612
		c-0.557,1.876-0.801,3.767-0.579,5.71c0.346,3.021,0.529,6.075,1.115,9.051c0.738,3.789,1.817,7.51,2.725,11.267
		c0.275,1.142,0.425,2.315,0.732,3.443c0.922,3.415,1.983,6.792,2.837,10.225c0.961,3.848,1.748,7.736,2.632,11.604
		c0.062,0.271,0.373,0.738,0.504,0.717c1.354-0.192,2.706-0.429,4.036-0.738c0.772-0.174,1.511-0.501,2.271-0.756
		c0.456-0.143,1.225-0.177,1.309-0.435c0.132-0.397-0.206-0.947-0.359-1.431c-0.06-0.195-0.191-0.366-0.24-0.561
		c-0.884-3.422-1.82-6.831-2.635-10.274c-0.877-3.676-1.73-7.371-2.427-11.088c-1.128-6.017-2.176-12.054-3.151-18.094
		c-0.507-3.134-0.808-6.309-1.176-9.471c-0.606-5.191-1.975-10.309-1.686-15.604C33.655,236.609,33.485,236.333,33.304,235.773z
		 M26.006,323.512c-0.407,0.373-0.908,0.62-1.006,0.975c-0.37,1.403-0.641,2.833-0.887,4.268c-0.082,0.484,0.232,1.239-0.012,1.46
		c-0.929,0.831-0.34,1.566-0.073,2.367c0.087,0.268,0.031,0.575,0.069,0.857c0.105,0.699,0.157,1.424,0.353,2.103
		c0.156,0.55,0.62,1.026,0.724,1.579c0.595,3.26,2.308,5.933,4.446,8.353c2.723,3.074,6.291,4.303,10.267,3.861
		c2.361-0.261,4.666-1.114,6.963-1.814c0.839-0.257,1.612-0.78,2.36-1.268c1.253-0.82,2.535-1.632,3.68-2.6
		c1.41-1.195,3.057-2.211,3.871-4.182c-0.442,0.022-0.79-0.047-1.075,0.06c-1.922,0.721-3.774,1.754-5.762,2.162
		c-4.313,0.874-8.687,1.156-13.021-0.101c-2.006-0.585-3.427-1.898-4.61-3.527c-0.916-1.268-1.901-2.497-2.643-3.864
		c-0.665-1.237-1.085-2.611-1.532-3.955C27.407,328.086,26.759,325.911,26.006,323.512z"/>
</g>
<g id="music4">
	<path opacity="0.7" fill-rule="evenodd" clip-rule="evenodd" fill="#FCFFFF" d="M341.123,17.27
		c-0.909-5.933-1.743-6.942-8.634-9.147c-6.895-2.203-23.369-2.036-23.369-2.036c-1.702,0.049-3.39,0.495-5.09,0.499
		c-2.998,0.008-6.021-0.046-9.003-0.345c-3.024-0.306-5.481,0.893-7.774,2.527c-1.678,1.19-3.112,2.717-4.706,4.032
		c-2.006,1.634-3.928,3.418-6.114,4.766c-2.759,1.697-5.49,3.332-7.903,5.559c-1.8,1.655-2.771,3.777-4.042,5.73
		c-0.773,1.2-1.089,2.686-1.654,4.036c-0.39,0.927-0.92,1.801-1.233,2.752c-0.776,2.365-1.43,4.776-2.217,7.137
		c-0.658,1.967-1.368,3.923-2.165,5.843c-1.459,3.513-2.951,7.017-4.505,10.485c-0.924,2.077-2.026,4.065-2.936,6.139
		c-0.889,2.009-1.623,4.091-2.462,6.127c-0.11,0.279-0.411,0.617-0.679,0.679c-0.957,0.225-1.935,0.364-2.921,0.488
		c-2.482,0.319-5.004,0.406-7.435,0.957c-3.246,0.738-6.48,1.627-9.226,3.743c-1.944,1.5-3.829,3.039-4.996,5.244
		c-0.274,0.504-0.361,1.121-0.653,1.611c-0.728,1.208-1.729,2.286-2.246,3.57c-0.873,2.193-1.554,4.428-1.74,6.865
		c-0.21,2.655-0.125,5.221,0.515,7.778c0.554,2.213,1.271,4.38,2.74,6.195c0.868,1.078,1.656,2.265,2.705,3.142
		c1.634,1.38,3.393,2.64,5.223,3.749c1.2,0.73,2.607,1.108,3.935,1.627c0.5,0.195,1.008,0.397,1.532,0.505
		c1.434,0.302,2.885,0.577,4.323,0.835c1.005,0.173,2.027,0.43,3.025,0.415c1.752-0.028,3.521-0.107,5.233-0.408
		c3.014-0.522,6.032-1.083,8.975-1.908c2.816-0.79,5.532-1.936,8.297-2.917c2.648-0.939,5.094-2.064,6.087-5.058
		c0.218-0.665,0.896-1.179,1.44-1.853c0.125-2.061,0.164-4.325,0.417-6.573c0.278-2.427,0.684-4.842,1.171-7.241
		c0.433-2.173,0.949-4.341,1.602-6.463c0.675-2.227,1.562-4.386,2.345-6.587l4.507-10.675c0.249-0.399,0.265-0.946,0.501-1.362
		c1.162-2.126,2.315-4.25,3.568-6.321c1.706-2.816,3.503-5.582,5.259-8.364c0.063-0.107,0.162-0.195,0.238-0.288
		c1.178-1.326,2.416-2.601,3.502-3.992c0.688-0.879,1.411-0.98,2.349-0.66c0.351,0.115,0.703,0.297,1.068,0.339
		c1.971,0.221,3.937,0.413,5.9,0.606c0.808,0.08,1.603,0.172,2.399,0.208c1.601,0.076,3.203,0.07,4.798,0.204l4.922,0.627
		c11.384,1.769,16.041-9.211,19.25-17.299C338.453,24.705,342.033,23.204,341.123,17.27z M256.58,61.5
		c1.311-3.282,2.428-6.643,3.673-9.956c0.411-1.091,0.981-2.132,1.422-3.222c1.457-3.577,2.757-7.227,4.372-10.731
		c1.271-2.754,2.899-5.343,4.393-7.998c0.951-1.705,2.255-3.095,3.808-4.293c2.084-1.61,4.041-3.384,6.155-4.944
		c1.826-1.351,3.815-2.479,5.694-3.754c0.92-0.623,1.756-1.357,2.908-2.265c-0.181,0.561-0.199,0.882-0.364,1.086
		c-3.332,4.125-5.208,9.079-7.755,13.645c-1.547,2.778-3.158,5.53-4.576,8.372c-2.741,5.47-5.418,10.979-8.024,16.522
		c-1.604,3.422-3.075,6.914-4.516,10.413c-1.348,3.27-2.583,6.581-3.861,9.875c-0.077,0.187-0.072,0.401-0.135,0.594
		c-0.16,0.481-0.212,1.13-0.551,1.373c-0.215,0.162-0.856-0.26-1.316-0.409c-0.761-0.241-1.553-0.406-2.287-0.717
		c-1.256-0.527-2.489-1.125-3.697-1.761c-0.124-0.061-0.102-0.613,0.007-0.874C253.471,68.797,255.11,65.18,256.58,61.5z
		 M241.825,113.309c-1.488,0.116-3.009,0.027-4.506-0.044c-0.891-0.038-1.82-0.068-2.655-0.352
		c-2.271-0.773-4.637-1.429-6.709-2.594c-3.486-1.97-5.661-5.054-6.066-9.139c-0.323-3.209-0.148-6.384,1.271-9.379
		c0.237-0.5,0.142-1.163,0.339-1.699c0.237-0.663,0.617-1.285,0.94-1.915c0.135-0.25,0.359-0.469,0.448-0.73
		c0.252-0.81,0.206-1.75,1.443-1.879c0.326-0.039,0.511-0.832,0.859-1.181c1.038-1.019,2.094-2.021,3.216-2.943
		c0.29-0.227,0.842-0.139,1.391-0.201c-0.795,2.384-1.543,4.529-2.226,6.698c-0.422,1.351-0.889,2.709-1.069,4.101
		c-0.197,1.547-0.123,3.118-0.114,4.684c0.007,2.016,0.393,3.91,1.678,5.556c2.777,3.551,6.489,5.882,10.5,7.692
		c1.853,0.838,3.959,1.082,5.943,1.617c0.293,0.082,0.536,0.339,0.905,0.581C245.599,113.3,243.67,113.166,241.825,113.309z
		 M317.322,44.789c-1.723-0.25-3.439-0.545-5.177-0.668c-1.42-0.108-2.856,0.087-4.289,0.035c-1.447-0.051-2.902-0.218-4.352-0.357
		c-1.892-0.175-3.778-0.324-5.654-0.597c-0.798-0.11-1.549-0.514-2.291-0.765c0.526-2.949,4.491-5.883,7.36-5.924
		c2.487-0.028,4.909,0.099,7.363,0.428c2.215,0.305,4.483,0.198,6.726,0.313c1.506,0.079,3.013,0.183,4.52,0.277l4.061,0.604
		l-0.139,0.28c-0.42,0.795-0.792,1.489-1.067,1.958C322.139,44.264,317.322,44.789,317.322,44.789z M327.04,35.292l-0.585,1.149
		c-0.769-0.182-4.186-0.72-4.186-0.72c-1.962-0.211-3.935-0.43-5.91-0.546c-2.19-0.124-4.397-0.091-6.595-0.216
		c-2.181-0.123-4.357-0.417-6.542-0.528c-1.424-0.075-2.858,0.065-4.285,0.081c-0.323,0.001-0.647-0.112-1.035-0.194
		c-1.245,1.758-2.5,3.503-3.721,5.267c-2.682,3.87-5.355,7.732-7.979,11.63c-1.115,1.654-2.118,3.391-3.109,5.13
		c-1.733,3.015-3.534,5.993-5.097,9.096c-1.146,2.255-1.964,4.689-2.93,7.043c-0.098,0.236-0.19,0.467-0.298,0.691l-3.158,7.304
		c-0.793,2.347-1.444,4.748-2.13,7.125c-0.38,1.343-0.78,2.7-1.062,4.066c-0.254,1.223-0.351,2.479-0.52,3.724
		c-0.14,0.97-0.241,1.946-0.453,2.898c-0.31,1.394-0.693,2.78-1.079,4.165c-0.319,1.15-0.572,2.338-1.048,3.42
		c-0.957,2.18-2.948,3.327-5.014,4.067c-2.089,0.757-4.337,1.129-6.541,1.492c-0.92,0.148-1.914-0.134-2.869-0.254
		c-1.211-0.151-2.419-0.337-3.632-0.504c-0.163-0.023-0.34-0.007-0.493-0.059c-3.806-1.292-7.691-2.46-10.994-4.803
		c-1.897-1.344-3.813-2.868-4.854-4.982c-0.733-1.508-1.012-3.292-1.253-4.98c-0.199-1.421-0.062-2.884-0.039-4.332
		c0.004-0.321,0.147-0.643,0.251-0.957c0.112-0.315,0.373-0.631,0.359-0.935c-0.164-3.151,1.81-5.427,3.415-7.733
		c1.124-1.622,2.716-3.147,4.45-4.064c1.781-0.945,3.954-1.274,6.002-1.562c1.976-0.273,4.01-0.195,6.025-0.178
		c0.844,0.011,1.688,0.284,2.54,0.371c0.556,0.067,1.126-0.031,1.681,0.03c0.393,0.042,0.779,0.238,1.165,0.348
		c0.559,0.164,1.131,0.291,1.68,0.483c0.699,0.255,1.374,0.591,2.074,0.841c0.843,0.296,1.33,0.133,1.612-0.879
		c0.396-1.415,1.044-2.767,1.611-4.134c1.188-2.837,2.379-5.685,3.582-8.512c1.502-3.541,3.203-7,4.495-10.606
		c3.068-8.571,7.716-16.356,11.846-24.403c1.64-3.181,3.703-6.155,5.619-9.193c1.106-1.756,2.119-3.628,3.519-5.135
		c1.337-1.449,2.128-3.656,4.449-3.978c1.573-0.22,3.169-0.3,4.767-0.406c1.599-0.109,3.203-0.16,4.806-0.256
		c1.878-0.118,3.765-0.286,5.657-0.373c1.933-0.088,3.865-0.172,5.8-0.126c1.49,0.03,2.973,0.262,4.463,0.413
		c1.881,0.193,3.769,0.377,5.646,0.58c0.841,0.09,1.68,0.165,2.519,0.304c4.098,0.863,3.683,4.671,4.426,6.431
		C334.636,19.208,330.249,28.834,327.04,35.292z"/>
</g>
</svg>
